<svg width="20" height="20" viewBox="0 0 20 20" fill="none" xmlns="http://www.w3.org/2000/svg">
<path d="M2.1428 2.85718C1.76392 2.85718 1.40056 3.00769 1.13265 3.27559C0.864743 3.54351 0.714233 3.90686 0.714233 4.28575V17.8572C0.714233 18.236 0.864743 18.5995 1.13265 18.8673C1.40056 19.1352 1.76392 19.2857 2.1428 19.2857H17.8571C18.2359 19.2857 18.5994 19.1352 18.8672 18.8673C19.1351 18.5995 19.2857 18.236 19.2857 17.8572V4.28575C19.2857 3.90686 19.1351 3.54351 18.8672 3.27559C18.5994 3.00769 18.2359 2.85718 17.8571 2.85718H14.9999" stroke="#E98074" stroke-linecap="round" stroke-linejoin="round"/>
<path d="M0.714233 7.85718H19.2857" stroke="#E98074" stroke-linecap="round" stroke-linejoin="round"/>
<path d="M5 0.714294V5.00001" stroke="#E98074" stroke-linecap="round" stroke-linejoin="round"/>
<path d="M15 0.714294V5.00001" stroke="#E98074" stroke-linecap="round" stroke-linejoin="round"/>
<path d="M5 2.85718H12.1429" stroke="#E98074" stroke-linecap="round" stroke-linejoin="round"/>
</svg>
