<svg width="28" height="30" viewBox="0 0 28 30" fill="none" xmlns="http://www.w3.org/2000/svg">
<path d="M27.2431 28.9286C26.3433 26.1231 24.5761 23.676 22.1962 21.9399C19.8161 20.2037 16.9462 19.2682 14.0002 19.2682C11.0541 19.2682 8.18423 20.2037 5.80418 21.9399C3.42415 23.676 1.65691 26.1231 0.757294 28.9286H27.2431Z" stroke="black" stroke-width="1.5" stroke-linecap="round" stroke-linejoin="round"/>
<path d="M14 19.2857C19.0085 19.2857 23.0688 15.2255 23.0688 10.217C23.0688 5.20853 19.0085 1.14835 14 1.14835C8.9915 1.14835 4.9313 5.20853 4.9313 10.217C4.9313 15.2255 8.9915 19.2857 14 19.2857Z" stroke="black" stroke-width="1.5" stroke-linecap="round" stroke-linejoin="round"/>
<path d="M16.9613 13.7259C16.9613 13.7259 16.2089 15.2064 14.0001 15.2064C11.7914 15.2064 11.0389 13.7259 11.0389 13.7259" stroke="black" stroke-width="1.5" stroke-linecap="round" stroke-linejoin="round"/>
<path d="M22.9044 8.49042C22.8841 8.49055 22.8639 8.49061 22.8438 8.49061C20.2077 8.49061 17.8411 7.33735 16.2208 5.50786C14.6005 7.33739 12.2339 8.49068 9.59784 8.49068C8.06712 8.49068 6.6272 8.10177 5.37155 7.41738C6.55128 3.77901 9.96834 1.14835 13.9999 1.14835C18.4179 1.14835 22.0981 4.30771 22.9044 8.49042Z" stroke="black" stroke-width="1.5" stroke-linecap="round" stroke-linejoin="round"/>
</svg>
